<?xml version="1.0" encoding="utf-8" standalone="yes"?>
<!DOCTYPE svg PUBLIC "-//W3C//DTD SVG 1.1//EN" "http://www.w3.org/Graphics/SVG/1.1/DTD/svg11.dtd">
<svg width="660" height="325" viewBox="0 0 660 325" style="fill:none;stroke:none;fill-rule:evenodd;clip-rule:evenodd;stroke-linecap:round;stroke-linejoin:round;stroke-miterlimit:1.5;" version="1.1" xmlns="http://www.w3.org/2000/svg" xmlns:xlink="http://www.w3.org/1999/xlink"><style id="fontImports">@import url("https://fonts.googleapis.com/css2?family=Roboto:wght@400;700&amp;display=block");</style><g id="items" style="isolation: isolate"><g id="blend" style="mix-blend-mode:normal"><g id="g-root-4.cr-small_cr_vjx61g7liq0-fill" data-item-order="999913134" data-item-id="4.cr-small_cr_vjx61g7liq0" data-item-class="Shape Stroke Fill Part Indexed" data-item-index="4" data-renderer-id="0" transform="translate(133.04299926757812, 62)"><g id="4.cr-small_cr_vjx61g7liq0-fill" stroke="none" fill="#224754"><g><path d="M 10 46C 10 65.882251 26.117749 82 46 82C 65.882251 82 82 65.882251 82 46C 82 26.117749 65.882251 10 46 10C 26.117749 10 10 26.117749 10 46"></path></g></g></g><g id="g-root-3.cr-small_cr_vjx61g7lipz-fill" data-item-order="999913136" data-item-id="3.cr-small_cr_vjx61g7lipz" data-item-class="Shape Stroke Fill Part Indexed" data-item-index="3" data-renderer-id="0" transform="translate(133.04299926757812, 230)"><g id="3.cr-small_cr_vjx61g7lipz-fill" stroke="none" fill="#5a3f27"><g><path d="M 10 46C 10 65.882251 26.117749 82 46 82C 65.882251 82 82 65.882251 82 46C 82 26.117749 65.882251 10 46 10C 26.117749 10 10 26.117749 10 46"></path></g></g></g><g id="g-root-2.cr-small_cr_4gp21m1g7lhxq-fill" data-item-order="999913138" data-item-id="2.cr-small_cr_4gp21m1g7lhxq" data-item-class="Shape Stroke Fill Part Indexed" data-item-index="2" data-renderer-id="0" transform="translate(423, 230)"><g id="2.cr-small_cr_4gp21m1g7lhxq-fill" stroke="none" fill="#4f4a20"><g><path d="M 10 46C 10 65.882251 26.117749 82 46 82C 65.882251 82 82 65.882251 82 46C 82 26.117749 65.882251 10 46 10C 26.117749 10 10 26.117749 10 46"></path></g></g></g><g id="g-root-1.cr-small_cr_hrj3bu1g7ljil-fill" data-item-order="999913140" data-item-id="1.cr-small_cr_hrj3bu1g7ljil" data-item-class="Shape Stroke Fill Part Indexed Indexed_1" data-item-index="1" data-renderer-id="0" transform="translate(422.95599365234375, 62)"><g id="1.cr-small_cr_hrj3bu1g7ljil-fill" stroke="none" fill="#2b503e"><g><path d="M 10 46C 10 65.882251 26.117749 82 46 82C 65.882251 82 82 65.882251 82 46C 82 26.117749 65.882251 10 46 10C 26.117749 10 10 26.117749 10 46"></path></g></g></g><g id="g-root-0.Vector_sy_13ymly21g7lh4z-fill" data-item-order="999913142" data-item-id="0.Vector_sy_13ymly21g7lh4z" data-item-class="Part Indexed_0 Fill Stroke ColorFillBlack ColorStrokeBlack" data-item-index="0" data-renderer-id="0" transform="translate(242, 109.9959716796875)"><g id="0.Vector_sy_13ymly21g7lh4z-fill" stroke="none" fill="#353535"><g><path d="M 154 81.999998C 154 42.235998 121.765 9.999998 82 9.999998L 82 9.999998C 42.236 9.999998 10 42.235998 10 81.999998L 10 81.999998C 10 121.764998 42.236 153.999998 82 153.999998L 82 153.999998C 121.764 153.999998 154 121.764998 154 81.999998L 154 81.999998Z"></path></g></g></g><g id="g-root-0.Union_sy_v2zlp61g7lhxo-fill" data-item-order="999913144" data-item-id="0.Union_sy_v2zlp61g7lhxo" data-item-class="Part Indexed_0 Fill Stroke ColorFillBlack ColorStrokeBlack" data-item-index="0" data-renderer-id="0" transform="translate(216.9849853515625, 110)"><g id="0.Union_sy_v2zlp61g7lhxo-fill" stroke="none" fill="#353535"><g><path d="M 179.015015 82C 179.015015 70.936 176.519015 60.454 172.060015 51.088L 194.894015 37.905L 198.483015 44.119L 204.131015 25.972L 185.590015 21.789L 189.142015 27.942L 166.299015 41.131C 153.310015 22.324 131.602015 10 107.015015 10C 82.460015 10 60.775015 22.292 47.780015 41.059L 25.006015 27.911L 28.594015 21.696L 10.054015 25.878L 15.702015 44.026L 19.254015 37.873L 42.007015 51.01C 37.525015 60.396 35.015015 70.905 35.015015 82C 35.015015 93.051 37.505015 103.521 41.954015 112.879L 19.236015 125.996L 15.648015 119.781L 10.000015 137.929L 28.541015 142.111L 24.988015 135.958L 47.710015 122.84C 60.698015 141.663 82.416015 154 107.015015 154C 131.620015 154 153.342015 141.658 166.328015 122.828L 189.124015 135.989L 185.536015 142.204L 204.077015 138.022L 198.429015 119.874L 194.876015 126.027L 172.082015 112.867C 176.527015 103.512 179.015015 93.046 179.015015 82Z"></path></g></g></g><g id="g-root-tx_starsche_1hjg8m21g7k45e-fill" data-item-order="1000000000" data-item-id="tx_starsche_1hjg8m21g7k45e" data-item-class="Label Stroke Title" data-item-index="none" data-renderer-id="0" transform="translate(194, 2)"><g id="tx_starsche_1hjg8m21g7k45e-fill" stroke="none" fill="#A3A3A3"><g><text style="font: 20px Roboto, sans-serif; white-space: pre;" font-weight="20px" font-size="Roboto," font-family="sans-serif"><tspan x="13.8" y="34" dominant-baseline="ideographic">Star Schema Components</tspan></text></g></g></g><g id="g-root-moni_1cwrlp61g7oagz-fill" data-item-order="1000000000" data-item-id="moni_1cwrlp61g7oagz" data-item-class="Icon Stroke Indexed InsideFill InsideColorFill" data-item-index="4" data-renderer-id="0" transform="translate(144, 74)"></g><g id="g-root-tx_marketda_dikt5m1g7k4jy-fill" data-item-order="1000000000" data-item-id="tx_marketda_dikt5m1g7k4jy" data-item-class="Label Stroke Indexed" data-item-index="4" data-renderer-id="0" transform="translate(2, 86)"><g id="tx_marketda_dikt5m1g7k4jy-fill" stroke="none" fill="#A3A3A3"><g><text style="font: 20px Roboto, sans-serif; white-space: pre;" font-weight="20px" font-size="Roboto," font-family="sans-serif"><tspan x="19.45" y="34" dominant-baseline="ideographic">Market Data</tspan></text></g></g></g><g id="g-root-line_qpo32y1g7ocul-fill" data-item-order="1000000000" data-item-id="line_qpo32y1g7ocul" data-item-class="Icon Stroke Indexed Indexed_1 InsideFill InsideColorFill" data-item-index="1" data-renderer-id="0" transform="translate(436, 74)"></g><g id="g-root-tx_stockhis_dkg8ey1g7k3k9-fill" data-item-order="1000000000" data-item-id="tx_stockhis_dkg8ey1g7k3k9" data-item-class="Label Stroke Indexed Indexed_1" data-item-index="1" data-renderer-id="0" transform="translate(506, 74)"><g id="tx_stockhis_dkg8ey1g7k3k9-fill" stroke="none" fill="#A3A3A3"><g><text style="font: 20px Roboto, sans-serif; white-space: pre;" font-weight="20px" font-size="Roboto," font-family="sans-serif"><tspan x="12" y="34" dominant-baseline="ideographic">Stock History </tspan><tspan x="12" y="58" dominant-baseline="ideographic">Data</tspan></text></g></g></g><g id="g-root-stac_deu1sq1g7ob9q-fill" data-item-order="1000000000" data-item-id="stac_deu1sq1g7ob9q" data-item-class="Icon Stroke InsideFill InsideColorFill InsideBlackFill ColorFillBlack ColorStrokeBlack" data-item-index="none" data-renderer-id="0" transform="translate(278, 145.9959716796875)"></g><g id="g-root-tx_economic_7qrve1g7k2z3-fill" data-item-order="1000000000" data-item-id="tx_economic_7qrve1g7k2z3" data-item-class="Label Stroke Indexed" data-item-index="3" data-renderer-id="0" transform="translate(26, 242)"><g id="tx_economic_7qrve1g7k2z3-fill" stroke="none" fill="#A3A3A3"><g><text style="font: 20px Roboto, sans-serif; white-space: pre;" font-weight="20px" font-size="Roboto," font-family="sans-serif"><tspan x="15.64" y="34" dominant-baseline="ideographic">Economic </tspan><tspan x="15.22" y="58" dominant-baseline="ideographic">Indicators</tspan></text></g></g></g><g id="g-root-grap_4j74pm1g761hg-fill" data-item-order="1000000000" data-item-id="grap_4j74pm1g761hg" data-item-class="Icon Stroke Indexed InsideFill InsideColorFill" data-item-index="3" data-renderer-id="0" transform="translate(144, 242)"></g><g id="g-root-medi_1414lga1g7ob9o-fill" data-item-order="1000000000" data-item-id="medi_1414lga1g7ob9o" data-item-class="Icon Stroke Indexed InsideFill InsideColorFill" data-item-index="2" data-renderer-id="0" transform="translate(436, 242)"></g><g id="g-root-tx_companym_1hhktcq1g7k554-fill" data-item-order="1000000000" data-item-id="tx_companym_1hhktcq1g7k554" data-item-class="Label Stroke Indexed" data-item-index="2" data-renderer-id="0" transform="translate(506, 242)"><g id="tx_companym_1hhktcq1g7k554-fill" stroke="none" fill="#A3A3A3"><g><text style="font: 20px Roboto, sans-serif; white-space: pre;" font-weight="20px" font-size="Roboto," font-family="sans-serif"><tspan x="12" y="34" dominant-baseline="ideographic">Company </tspan><tspan x="12" y="58" dominant-baseline="ideographic">Metadata</tspan></text></g></g></g><g id="g-root-4.cr-small_cr_vjx61g7liq0-stroke" data-item-order="999913134" data-item-id="4.cr-small_cr_vjx61g7liq0" data-item-class="Shape Stroke Fill Part Indexed" data-item-index="4" data-renderer-id="0" transform="translate(133.04299926757812, 62)"><g id="4.cr-small_cr_vjx61g7liq0-stroke" fill="none" stroke-linecap="round" stroke-linejoin="round" stroke-miterlimit="4" stroke="#1AC6FF" stroke-width="2"><g><path d="M 10 46C 10 65.882251 26.117749 82 46 82C 65.882251 82 82 65.882251 82 46C 82 26.117749 65.882251 10 46 10C 26.117749 10 10 26.117749 10 46"></path></g></g></g><g id="g-root-3.cr-small_cr_vjx61g7lipz-stroke" data-item-order="999913136" data-item-id="3.cr-small_cr_vjx61g7lipz" data-item-class="Shape Stroke Fill Part Indexed" data-item-index="3" data-renderer-id="0" transform="translate(133.04299926757812, 230)"><g id="3.cr-small_cr_vjx61g7lipz-stroke" fill="none" stroke-linecap="round" stroke-linejoin="round" stroke-miterlimit="4" stroke="#F99539" stroke-width="2"><g><path d="M 10 46C 10 65.882251 26.117749 82 46 82C 65.882251 82 82 65.882251 82 46C 82 26.117749 65.882251 10 46 10C 26.117749 10 10 26.117749 10 46"></path></g></g></g><g id="g-root-2.cr-small_cr_4gp21m1g7lhxq-stroke" data-item-order="999913138" data-item-id="2.cr-small_cr_4gp21m1g7lhxq" data-item-class="Shape Stroke Fill Part Indexed" data-item-index="2" data-renderer-id="0" transform="translate(423, 230)"><g id="2.cr-small_cr_4gp21m1g7lhxq-stroke" fill="none" stroke-linecap="round" stroke-linejoin="round" stroke-miterlimit="4" stroke="#FFE60A" stroke-width="2"><g><path d="M 10 46C 10 65.882251 26.117749 82 46 82C 65.882251 82 82 65.882251 82 46C 82 26.117749 65.882251 10 46 10C 26.117749 10 10 26.117749 10 46"></path></g></g></g><g id="g-root-1.cr-small_cr_hrj3bu1g7ljil-stroke" data-item-order="999913140" data-item-id="1.cr-small_cr_hrj3bu1g7ljil" data-item-class="Shape Stroke Fill Part Indexed Indexed_1" data-item-index="1" data-renderer-id="0" transform="translate(422.95599365234375, 62)"><g id="1.cr-small_cr_hrj3bu1g7ljil-stroke" fill="none" stroke-linecap="round" stroke-linejoin="round" stroke-miterlimit="4" stroke="#44E095" stroke-width="2"><g><path d="M 10 46C 10 65.882251 26.117749 82 46 82C 65.882251 82 82 65.882251 82 46C 82 26.117749 65.882251 10 46 10C 26.117749 10 10 26.117749 10 46"></path></g></g></g><g id="g-root-0.Vector_sy_13ymly21g7lh4z-stroke" data-item-order="999913142" data-item-id="0.Vector_sy_13ymly21g7lh4z" data-item-class="Part Indexed_0 Fill Stroke ColorFillBlack ColorStrokeBlack" data-item-index="0" data-renderer-id="0" transform="translate(242, 109.9959716796875)"><g id="0.Vector_sy_13ymly21g7lh4z-stroke" fill="none" stroke-linecap="round" stroke-linejoin="round" stroke-miterlimit="4" stroke="#666666" stroke-width="2"><g><path d="M 154 81.999998C 154 42.235998 121.765 9.999998 82 9.999998L 82 9.999998C 42.236 9.999998 10 42.235998 10 81.999998L 10 81.999998C 10 121.764998 42.236 153.999998 82 153.999998L 82 153.999998C 121.764 153.999998 154 121.764998 154 81.999998L 154 81.999998Z"></path></g></g></g><g id="g-root-0.Union_sy_v2zlp61g7lhxo-stroke" data-item-order="999913144" data-item-id="0.Union_sy_v2zlp61g7lhxo" data-item-class="Part Indexed_0 Fill Stroke ColorFillBlack ColorStrokeBlack" data-item-index="0" data-renderer-id="0" transform="translate(216.9849853515625, 110)"><g id="0.Union_sy_v2zlp61g7lhxo-stroke" fill="none" stroke-linecap="round" stroke-linejoin="round" stroke-miterlimit="4" stroke="#666666" stroke-width="2"><g><path d="M 179.015015 82C 179.015015 70.936 176.519015 60.454 172.060015 51.088L 194.894015 37.905L 198.483015 44.119L 204.131015 25.972L 185.590015 21.789L 189.142015 27.942L 166.299015 41.131C 153.310015 22.324 131.602015 10 107.015015 10C 82.460015 10 60.775015 22.292 47.780015 41.059L 25.006015 27.911L 28.594015 21.696L 10.054015 25.878L 15.702015 44.026L 19.254015 37.873L 42.007015 51.01C 37.525015 60.396 35.015015 70.905 35.015015 82C 35.015015 93.051 37.505015 103.521 41.954015 112.879L 19.236015 125.996L 15.648015 119.781L 10.000015 137.929L 28.541015 142.111L 24.988015 135.958L 47.710015 122.84C 60.698015 141.663 82.416015 154 107.015015 154C 131.620015 154 153.342015 141.658 166.328015 122.828L 189.124015 135.989L 185.536015 142.204L 204.077015 138.022L 198.429015 119.874L 194.876015 126.027L 172.082015 112.867C 176.527015 103.512 179.015015 93.046 179.015015 82Z"></path></g></g></g><g id="g-root-tx_starsche_1hjg8m21g7k45e-stroke" data-item-order="1000000000" data-item-id="tx_starsche_1hjg8m21g7k45e" data-item-class="Label Stroke Title" data-item-index="none" data-renderer-id="0" transform="translate(194, 2)"></g><g id="g-root-moni_1cwrlp61g7oagz-stroke" data-item-order="1000000000" data-item-id="moni_1cwrlp61g7oagz" data-item-class="Icon Stroke Indexed InsideFill InsideColorFill" data-item-index="4" data-renderer-id="0" transform="translate(144, 74)"><g id="moni_1cwrlp61g7oagz-stroke" fill="none" stroke-linecap="round" stroke-linejoin="round" stroke-miterlimit="4" stroke="#1AC6FF" stroke-width="2"><g><path d="M 40 55L 28 55C 29.717556 52.660442 30.755709 49.892033 31 47L 37 47C 37.256348 49.889305 38.293324 52.654568 40 55ZM 24 55L 44 55M 11 41L 57 41M 57 44.919998C 57 46.02457 56.104568 46.919998 55 46.919998L 13 46.919998C 11.895431 46.919998 11 46.02457 11 44.919998L 11 15C 11 13.895431 11.895431 13 13 13L 55 13C 56.104568 13 57 13.895431 57 15ZM 28 25L 30.540001 19M 37.459999 19L 40 25M 42 25L 26 25L 27.52 32C 27.612257 32.626236 28.16814 33.077888 28.799999 33.040001L 39.200001 33.040001C 39.831856 33.077888 40.387741 32.626236 40.48 32Z"></path></g></g></g><g id="g-root-tx_marketda_dikt5m1g7k4jy-stroke" data-item-order="1000000000" data-item-id="tx_marketda_dikt5m1g7k4jy" data-item-class="Label Stroke Indexed" data-item-index="4" data-renderer-id="0" transform="translate(2, 86)"></g><g id="g-root-line_qpo32y1g7ocul-stroke" data-item-order="1000000000" data-item-id="line_qpo32y1g7ocul" data-item-class="Icon Stroke Indexed Indexed_1 InsideFill InsideColorFill" data-item-index="1" data-renderer-id="0" transform="translate(436, 74)"><g id="line_qpo32y1g7ocul-stroke" fill="none" stroke-linecap="round" stroke-linejoin="round" stroke-miterlimit="4" stroke="#44E095" stroke-width="2"><g><path d="M 11.008 34C 11.008 46.702549 21.30545 57 34.008003 57C 46.710548 57 57.007999 46.702549 57.007999 34C 57.007999 21.297451 46.710548 11 34.008003 11C 21.30545 11 11.008 21.297451 11.008 34ZM 47.007999 45L 21.007999 45L 21.007999 25M 21 35L 26.378 31.926001C 27.291264 31.403624 28.453098 31.678127 29.035999 32.554001L 32.860001 38.290001C 33.044575 38.730682 33.483971 39.00988 33.961323 38.989807C 34.438675 38.96973 34.853073 38.654621 35 38.199997L 39.528 29.879999C 39.830055 29.326275 40.375626 28.947491 41 28.858L 47 28"></path></g></g></g><g id="g-root-tx_stockhis_dkg8ey1g7k3k9-stroke" data-item-order="1000000000" data-item-id="tx_stockhis_dkg8ey1g7k3k9" data-item-class="Label Stroke Indexed Indexed_1" data-item-index="1" data-renderer-id="0" transform="translate(506, 74)"></g><g id="g-root-stac_deu1sq1g7ob9q-stroke" data-item-order="1000000000" data-item-id="stac_deu1sq1g7ob9q" data-item-class="Icon Stroke InsideFill InsideColorFill InsideBlackFill ColorFillBlack ColorStrokeBlack" data-item-index="none" data-renderer-id="0" transform="translate(278, 145.9959716796875)"><g id="stac_deu1sq1g7ob9q-stroke" fill="none" stroke-linecap="round" stroke-linejoin="round" stroke-miterlimit="4" stroke="#666666" stroke-width="2"><g><path d="M 14.635 35.022999L 58.545998 35.022999C 58.545998 35.022999 61.681 35.022999 61.681 38.157997L 61.681 72.660995C 61.681 72.660995 61.681 75.795998 58.545998 75.795998L 14.635 75.795998C 14.635 75.795998 11.5 75.795998 11.5 72.660995L 11.5 38.157997C 11.5 38.157997 11.5 35.022999 14.635 35.022999M 11.5 44.529999L 61.681 44.529999M 11.5 65.127998L 61.681 65.127998M 11.5 55.098999L 61.681 55.098999M 35.022999 44.529999L 35.022999 75.795998M 48.352001 44.529999L 48.352001 75.795998M 24.046001 25.599998L 67.954002 25.599998C 68.78833 25.599995 69.588318 25.932251 70.177155 26.523338C 70.765991 27.114426 71.095184 27.915672 71.092003 28.75L 71.092003 69.522995M 33.453999 16.204L 77.364998 16.204C 79.09758 16.203999 80.501656 17.609415 80.499992 19.341999L 80.5 60.100002"></path></g></g></g><g id="g-root-tx_economic_7qrve1g7k2z3-stroke" data-item-order="1000000000" data-item-id="tx_economic_7qrve1g7k2z3" data-item-class="Label Stroke Indexed" data-item-index="3" data-renderer-id="0" transform="translate(26, 242)"></g><g id="g-root-grap_4j74pm1g761hg-stroke" data-item-order="1000000000" data-item-id="grap_4j74pm1g761hg" data-item-class="Icon Stroke Indexed InsideFill InsideColorFill" data-item-index="3" data-renderer-id="0" transform="translate(144, 242)"><g id="grap_4j74pm1g761hg-stroke" fill="none" stroke-linecap="round" stroke-linejoin="round" stroke-miterlimit="4" stroke="#F99539" stroke-width="2"><g><path d="M 11.714286 11.714286L 11.714286 56.285713L 56.285713 56.285713M 22 32.285713L 30.571428 40.857143L 44.285713 20.285715L 56.285713 28.857143"></path></g></g></g><g id="g-root-medi_1414lga1g7ob9o-stroke" data-item-order="1000000000" data-item-id="medi_1414lga1g7ob9o" data-item-class="Icon Stroke Indexed InsideFill InsideColorFill" data-item-index="2" data-renderer-id="0" transform="translate(436, 242)"><g id="medi_1414lga1g7ob9o-stroke" fill="none" stroke-linecap="round" stroke-linejoin="round" stroke-miterlimit="4" stroke="#FFE60A" stroke-width="2"><g><path d="M 41.940002 15.122C 34.946617 9.468336 24.947414 9.491833 17.980682 15.1783C 11.013947 20.864767 8.987968 30.656603 13.126188 38.640739C 17.264408 46.624874 26.433308 50.614346 35.096001 48.200001M 12.078 36.234001L 34.501999 36.234001M 12.078 23.566L 34.501999 23.566M 25.9 11.344C 22.490395 23.647884 22.991535 36.707588 27.334 48.714001M 34.096001 11.344C 34.671841 13.416891 35.139145 15.518414 35.495998 17.639999M 57 57.099998L 11 57.099998M 39 57.099998L 57 57.099998L 57 27.799999C 56.977287 27.267078 56.53331 26.849739 56 26.860001L 40 26.860001C 39.464783 26.848719 39.019547 27.26902 39 27.804001ZM 43.498001 22.336C 43.574894 21.582605 44.243801 21.031425 44.998001 21.099998L 50.998001 21.1C 51.752197 21.031425 52.421104 21.582605 52.497997 22.335999L 52.498001 26.860001L 43.498001 26.860001ZM 48 21.1L 48 13.9M 51 32.620003L 45 32.620003M 51 38.379997L 45 38.379997M 51 44.139999L 45 44.139999M 51 49.900002L 45 49.900002"></path></g></g></g><g id="g-root-tx_companym_1hhktcq1g7k554-stroke" data-item-order="1000000000" data-item-id="tx_companym_1hhktcq1g7k554" data-item-class="Label Stroke Indexed" data-item-index="2" data-renderer-id="0" transform="translate(506, 242)"></g></g></g></svg>